<svg width="128" height="128" viewBox="0 0 128 128" fill="none" xmlns="http://www.w3.org/2000/svg">
<path d="M98.7641 0H1.5946V57.5771H27.9895C46.88 57.5771 55.6783 41.4038 54.5138 27.9476C54.2238 24.596 57.1016 21.6076 60.8538 21.6076C64.606 21.6076 66.9736 24.5835 66.8056 27.8182C65.7705 47.7437 84.014 60.8118 99.4111 59.0004C138.227 53.6955 132.663 3.62283 98.7641 0Z" fill="#1D1A9D"/>
<path d="M98.7641 128H1.5946V70.4229H27.9895C46.88 70.4229 55.6783 86.5962 54.5138 100.052C54.2238 103.404 57.1016 106.392 60.8538 106.392C64.606 106.392 66.9736 103.417 66.8056 100.182C65.7705 80.2563 84.014 67.1882 99.4111 68.9996C138.227 74.3045 132.663 124.377 98.7641 128Z" fill="#1D1A9D"/>
</svg>
