<?xml version="1.0" encoding="UTF-8"?>
<svg id="_图层_1" data-name="图层 1" xmlns="http://www.w3.org/2000/svg" viewBox="0 0 1185.69 558.43"
width="462"
   height="132">
  <defs>
    <style>
      .cls-1 {
        fill: #1d1a9c;
        fill-rule: evenodd;
      }

      .cls-2 {
        fill: #747474;
      }
    </style>
  </defs>
  <path class="cls-2" d="M1141.12,434.13c7.39,0,13.89,1.21,19.47,3.67,5.6,2.45,10.22,5.72,13.92,9.73,3.69,4.04,6.47,8.64,8.35,13.75,1.85,5.14,2.8,10.4,2.83,15.74.03,5.37-.89,10.6-2.74,15.74-1.87,5.14-4.65,9.73-8.37,13.75-3.73,4.05-8.37,7.28-13.92,9.73-5.57,2.46-12.07,3.7-19.52,3.7h-34.25v35.7h-22.93v-121.33c9.64,0,19.2-.03,28.65-.09,9.44-.06,18.95-.09,28.54-.09M1106.87,498.94h34.25c4.85,0,8.92-1.07,12.19-3.18,3.29-2.11,5.72-4.77,7.34-7.94,1.59-3.21,2.39-6.64,2.39-10.37s-.81-7.19-2.45-10.37c-1.62-3.18-4.07-5.84-7.31-7.94-3.23-2.14-7.31-3.18-12.16-3.18h-34.25v42.98ZM918.97,434.47v69.55c0,8.95-1.33,16.84-3.96,23.6-2.63,6.79-6.27,12.42-10.92,16.98-4.65,4.54-10.2,7.94-16.61,10.23-6.44,2.28-13.46,3.44-21.08,3.44s-14.18-1.13-20.68-3.35c-6.53-2.22-12.25-5.57-17.18-10.08-4.94-4.48-8.84-10.11-11.73-16.89-2.86-6.82-4.3-14.79-4.3-23.91v-69.55h22.76v69.55c0,5.46.75,10.28,2.25,14.41,1.47,4.16,3.61,7.65,6.33,10.45,2.74,2.83,6.04,4.97,9.87,6.38,3.84,1.44,8.12,2.17,12.86,2.17s8.95-.78,12.65-2.31c3.69-1.56,6.78-3.78,9.3-6.64,2.51-2.89,4.45-6.38,5.78-10.51,1.3-4.1,1.96-8.75,1.96-13.95v-69.55h22.7ZM590.85,452.67c-7.16,0-13.29,1.3-18.37,3.93s-9.24,6.01-12.47,10.19c-3.26,4.16-5.6,8.84-7.02,14.01-1.44,5.14-2.11,10.31-1.99,15.42.11,4.97.89,9.91,2.39,14.82,1.5,4.91,3.84,9.33,6.99,13.26,3.15,3.9,7.22,7.07,12.22,9.5,4.99,2.43,11.09,3.64,18.25,3.64,4.74,0,9.01-.55,12.8-1.7,3.81-1.13,7.19-2.66,10.14-4.59,2.92-1.96,5.43-4.27,7.51-6.93,2.11-2.69,3.81-5.57,5.17-8.64,1.36-3.09,2.37-6.3,3.01-9.62.63-3.32,1.01-6.64,1.07-9.96.06-3.41-.23-6.82-.87-10.28-.6-3.5-1.59-6.82-2.95-10.05-1.36-3.21-3.09-6.21-5.2-9.01-2.14-2.77-4.68-5.23-7.62-7.31-2.97-2.08-6.35-3.73-10.2-4.91-3.84-1.18-8.12-1.76-12.85-1.76ZM590.85,431.93c6.93,0,13.31.84,19.12,2.54,5.81,1.68,11.03,4.01,15.66,6.96,4.62,2.97,8.66,6.47,12.13,10.51,3.46,4.01,6.35,8.4,8.64,13.11,2.28,4.71,3.98,9.68,5.08,14.87,1.1,5.23,1.62,10.45,1.56,15.71-.06,5.23-.66,10.43-1.79,15.57-1.13,5.14-2.8,10.02-5.03,14.67-2.22,4.65-5.03,8.98-8.41,12.94-3.41,3.99-7.39,7.42-11.99,10.34-4.59,2.89-9.79,5.17-15.6,6.81-5.83,1.62-12.27,2.46-19.38,2.46s-13.6-.81-19.44-2.43c-5.83-1.59-11.06-3.84-15.68-6.73-4.62-2.86-8.66-6.27-12.07-10.2-3.41-3.9-6.24-8.2-8.49-12.85-2.25-4.65-3.93-9.56-5.02-14.73-1.13-5.17-1.67-10.4-1.67-15.68s.58-10.57,1.7-15.8c1.13-5.2,2.86-10.2,5.17-14.93s5.17-9.13,8.63-13.14c3.44-4.04,7.45-7.54,12.07-10.51,4.65-2.95,9.85-5.28,15.63-6.96,5.77-1.7,12.16-2.54,19.18-2.54ZM297.33,455.61v38.84h34.77c3.61,0,6.73-.55,9.36-1.65,2.6-1.1,4.77-2.57,6.47-4.42,1.67-1.82,2.95-3.9,3.75-6.21.81-2.31,1.24-4.68,1.24-7.11s-.44-4.82-1.24-7.16c-.81-2.34-2.08-4.42-3.75-6.21-1.7-1.82-3.87-3.26-6.47-4.39-2.63-1.13-5.75-1.7-9.36-1.7h-34.77ZM381.86,555.63h-27.18l-35.38-40.52h-21.98v40.52h-22.93v-121.5c9.7,0,19.32.03,28.88.09,9.56.06,19.18.09,28.82.09,7.16.06,13.46,1.18,18.92,3.41,5.43,2.25,9.99,5.23,13.66,8.95,3.67,3.7,6.44,7.97,8.29,12.79s2.8,9.88,2.8,15.1c0,4.19-.52,8.29-1.59,12.33-1.04,4.01-2.74,7.77-5.11,11.2-2.37,3.44-5.52,6.41-9.41,8.95-3.93,2.54-8.78,4.42-14.53,5.6l36.74,41.44v1.53ZM95.36,463.99c-2.02-1.96-4.27-3.72-6.76-5.26-2.49-1.5-5.08-2.77-7.74-3.78-2.69-1.01-5.4-1.79-8.18-2.34-2.77-.52-5.48-.81-8.12-.81-6.49,0-12.33,1.16-17.47,3.46-5.17,2.31-9.56,5.49-13.17,9.53-3.61,4.04-6.38,8.78-8.29,14.21-1.91,5.46-2.89,11.29-2.89,17.56,0,4.97.78,9.88,2.31,14.73,1.5,4.85,3.93,9.18,7.25,13,3.35,3.78,7.65,6.87,12.97,9.24,5.28,2.37,11.73,3.55,19.29,3.55,2.37,0,4.68-.14,6.93-.46,2.25-.32,4.51-.84,6.73-1.56,2.22-.72,4.48-1.7,6.73-2.94,2.25-1.24,4.56-2.83,6.93-4.76v-21.49h-30.96v-20.39h51.96v51.12c-3,3.44-6.21,6.5-9.62,9.22-3.41,2.71-7.11,5-11.03,6.84-3.96,1.88-8.23,3.29-12.82,4.27-4.59,1.01-9.56,1.5-14.85,1.5-7.62,0-14.5-.81-20.62-2.37-6.12-1.59-11.55-3.78-16.29-6.61-4.74-2.83-8.81-6.15-12.25-10.02-3.46-3.87-6.3-8.09-8.52-12.71-2.23-4.59-3.87-9.44-4.91-14.53-1.04-5.11-1.56-10.31-1.56-15.62,0-5.69.61-11.29,1.79-16.75,1.18-5.46,2.95-10.63,5.32-15.48,2.37-4.85,5.34-9.33,8.9-13.46,3.55-4.13,7.71-7.65,12.47-10.63,4.76-2.94,10.11-5.26,16.03-6.93,5.92-1.67,12.47-2.48,19.64-2.48,8.18,0,16.14,1.53,23.94,4.65,7.77,3.09,14.82,7.74,21.06,13.95l-14.21,14.55Z"/>
  <path class="cls-1" d="M536.65,313.72c-29.28,0-50.34-16.95-50.34-42.12v-1.03c0-17.98,9.76-34.93,33.9-47.78l68.84,69.35c-16.44,13.36-33.9,21.57-52.4,21.57M544.87,151.39c-14.9-16.95-21.06-28.77-21.06-44.69v-1.03c0-21.57,13.87-36.47,34.93-36.47s33.9,12.84,33.9,33.39v1.03c0,23.12-16.44,35.96-47.77,47.77ZM79.7,208.44c42.23,0,76.78,34.55,76.78,76.78v10.99c0,10.45,8.55,19,19,19s18.99-8.55,18.99-19c.24-.01-.06-5.62-.06-6.32,0-48.11,39-87.11,87.11-87.11s86.52,38.96,87.11,87.11c0,44.54-33.44,81.28-76.58,86.48-4.63.74-9.37,1.12-14.2,1.12H0v-169.05h79.7ZM0,0h281.52c48.11,0,87.11,39.01,87.11,87.11-.64,48.13-38.28,87.11-87.11,87.11s-87.11-39-87.11-87.11c0-.45.14-4.55.06-4.56,0-10.45-8.55-18.99-18.99-18.99s-19,8.55-19,18.99v11.12c0,42.23-34.55,76.78-76.78,76.78H0V0ZM744.67,377.64h109.47l.06-.15.06.15c17.01-24.54,45.58-40.65,77.96-40.65,52.17,0,86.78,52.28,172.62,52.28,25.35,0,49.65-4.37,72.2-12.38l-30.32-65.86-2.49-5.11c-12.46,3.76-25.69,5.78-39.39,5.78-67.73,0-93.2-51.75-172.62-51.75-11.95,0-23.61,1.21-34.87,3.49l52.92-139.85,30.07,65.32c28.39,61.67,81.47,75.66,134.67,53.19L1005.21,5.15h-119.6l-140.95,372.49ZM690.76,378.45c19.52,0,34.42-14.9,34.42-34.42,0-10.79-4.62-18.49-11.81-25.69l-32.88-32.36c12.33-17.46,24.15-35.96,34.42-53.94,3.08-5.14,4.62-10.79,4.62-16.44,0-17.98-14.9-32.88-32.88-32.88-15.41,0-25.68,10.79-29.28,17.98-7.7,13.87-15.41,26.71-23.63,39.04l-47.26-46.75c44.18-17.47,75-45.72,75-94.01v-1.03c0-50.34-40.07-90.41-101.2-90.41-69.35,0-108.9,45.2-108.9,94.52v1.03c0,24.66,7.19,47.26,25.17,71.92-45.21,20.55-69.86,52.91-69.86,98.63v1.03c0,63.7,51.88,103.77,120.72,103.77,42.64,0,77.57-16.44,106.85-41.61l30.31,30.31c8.22,8.22,15.41,11.3,26.2,11.3Z"/>
</svg>